<svg width="129" height="34" viewBox="0 0 129 34" fill="none" xmlns="http://www.w3.org/2000/svg">
<path fill-rule="evenodd" clip-rule="evenodd" d="M15.6868 18.9258V0C16.097 2.59184 18.5442 5.3025 20.9731 7.9929C21.2123 8.25784 21.4513 8.52257 21.6881 8.78697C24.257 11.6545 24.5966 13.3955 24.5966 14.7269V17.3526C23.8019 17.5974 23.2243 18.3375 23.2243 19.2125C23.2243 20.0876 23.8019 20.8277 24.5966 21.0725V34C24.4537 30.7028 21.5516 27.3949 18.8001 24.8862C16.5716 22.8543 15.6868 20.4825 15.6868 18.9258ZM25.6003 34C25.7433 30.7028 28.6453 27.3949 31.3968 24.8862C33.6253 22.8543 34.5102 20.4825 34.5102 18.9258V0C34.1 2.59184 31.6528 5.3025 29.2238 7.9929C28.9847 8.25784 28.7457 8.52257 28.5088 8.78697C25.94 11.6545 25.6003 13.3955 25.6003 14.7269V17.3526C26.395 17.5974 26.9726 18.3375 26.9726 19.2125C26.9726 20.0876 26.395 20.8277 25.6003 21.0725V34Z" fill="#7956FF"/>
<path fill-rule="evenodd" clip-rule="evenodd" d="M12 1.12653V20.0523C12 21.5828 12.8553 23.9012 15.0019 25.9098L15.0375 25.9226C15.453 26.3007 15.9661 26.7505 16.5195 27.2356C18.5541 29.0192 21.1343 31.281 21.4219 32.2189C21.2645 31.2805 20.5648 29.4132 17.8376 26.6887H17.839C17.8212 26.6714 17.8034 26.6541 17.7856 26.6369C17.5456 26.3984 17.2901 26.1534 17.0182 25.902C14.6445 23.3211 14.0073 21.5871 14.0073 20.0523V5.25197C12.9794 3.8577 12.2136 2.47601 12 1.12653Z" fill="#7956FF"/>
<path fill-rule="evenodd" clip-rule="evenodd" d="M38.1969 1.12653V20.0523C38.1969 21.5828 37.3416 23.9012 35.1951 25.9097L35.1595 25.9226C34.7439 26.3007 34.2308 26.7505 33.6774 27.2356C31.6428 29.0192 29.0626 31.281 28.775 32.2189C28.9324 31.2805 29.6321 29.4132 32.3593 26.6887H32.3579C32.3755 26.6715 32.3932 26.6544 32.4109 26.6373C32.651 26.3987 32.9066 26.1535 33.1788 25.9019C35.5525 23.3211 36.1896 21.5871 36.1896 20.0523V5.25197C37.2175 3.8577 37.9833 2.47601 38.1969 1.12653Z" fill="#7956FF"/>
<path d="M65.502 22.696C64.0553 22.696 62.926 22.2993 62.114 21.506C61.302 20.7127 60.896 19.588 60.896 18.132V12.7H63.668V18.048C63.668 18.888 63.8313 19.49 64.158 19.854C64.494 20.218 64.9513 20.4 65.53 20.4C66.1087 20.4 66.5613 20.218 66.888 19.854C67.2147 19.49 67.378 18.888 67.378 18.048V12.7H70.108V18.132C70.108 19.588 69.702 20.7127 68.89 21.506C68.078 22.2993 66.9487 22.696 65.502 22.696ZM76.8019 14.786C77.3899 14.786 77.9219 14.9073 78.3979 15.15C78.8739 15.3833 79.2472 15.7473 79.5179 16.242C79.7979 16.7367 79.9379 17.376 79.9379 18.16V22.5H77.2779V18.594C77.2779 18.0527 77.1659 17.6607 76.9419 17.418C76.7272 17.166 76.4239 17.04 76.0319 17.04C75.7519 17.04 75.4952 17.1053 75.2619 17.236C75.0285 17.3573 74.8465 17.5487 74.7159 17.81C74.5852 18.0713 74.5199 18.412 74.5199 18.832V22.5H71.8599V14.912H74.3939V17.068L73.9039 16.438C74.1932 15.8873 74.5899 15.4767 75.0939 15.206C75.5979 14.926 76.1672 14.786 76.8019 14.786ZM81.6079 22.5V14.912H84.2679V22.5H81.6079ZM82.9379 14.072C82.4526 14.072 82.0606 13.9367 81.7619 13.666C81.4632 13.3953 81.3139 13.0593 81.3139 12.658C81.3139 12.2567 81.4632 11.9207 81.7619 11.65C82.0606 11.3793 82.4526 11.244 82.9379 11.244C83.4232 11.244 83.8152 11.3747 84.1139 11.636C84.4126 11.888 84.5619 12.2147 84.5619 12.616C84.5619 13.036 84.4126 13.386 84.1139 13.666C83.8246 13.9367 83.4326 14.072 82.9379 14.072ZM91.0226 22.696C90.2479 22.696 89.5292 22.5747 88.8666 22.332C88.2039 22.08 87.6299 21.7253 87.1446 21.268C86.6686 20.8107 86.2952 20.274 86.0246 19.658C85.7539 19.0327 85.6186 18.3467 85.6186 17.6C85.6186 16.8533 85.7539 16.172 86.0246 15.556C86.2952 14.9307 86.6732 14.3893 87.1586 13.932C87.6439 13.4747 88.2179 13.1247 88.8806 12.882C89.5526 12.63 90.2852 12.504 91.0786 12.504C92.0026 12.504 92.8286 12.658 93.5566 12.966C94.2846 13.274 94.8866 13.7173 95.3626 14.296L93.5986 15.892C93.2626 15.528 92.8986 15.2573 92.5066 15.08C92.1239 14.8933 91.6946 14.8 91.2186 14.8C90.7986 14.8 90.4159 14.8653 90.0706 14.996C89.7252 15.1267 89.4312 15.318 89.1886 15.57C88.9459 15.8127 88.7546 16.1067 88.6146 16.452C88.4839 16.788 88.4186 17.1707 88.4186 17.6C88.4186 18.0107 88.4839 18.3887 88.6146 18.734C88.7546 19.0793 88.9459 19.378 89.1886 19.63C89.4312 19.8727 89.7206 20.064 90.0566 20.204C90.4019 20.3347 90.7799 20.4 91.1906 20.4C91.6012 20.4 92.0026 20.3347 92.3946 20.204C92.7866 20.064 93.1832 19.8307 93.5846 19.504L95.1386 21.45C94.5786 21.8513 93.9299 22.1593 93.1926 22.374C92.4552 22.5887 91.7319 22.696 91.0226 22.696ZM92.6886 21.086V17.39H95.1386V21.45L92.6886 21.086ZM99.962 22.626C99.346 22.626 98.7907 22.5047 98.296 22.262C97.8107 22.0193 97.428 21.6413 97.148 21.128C96.8773 20.6053 96.742 19.9473 96.742 19.154V14.912H99.402V18.72C99.402 19.308 99.5093 19.728 99.724 19.98C99.948 20.232 100.261 20.358 100.662 20.358C100.923 20.358 101.161 20.2973 101.376 20.176C101.591 20.0547 101.763 19.8633 101.894 19.602C102.025 19.3313 102.09 18.986 102.09 18.566V14.912H104.75V22.5H102.216V20.358L102.706 20.96C102.445 21.52 102.067 21.94 101.572 22.22C101.077 22.4907 100.541 22.626 99.962 22.626ZM106.463 22.5V14.912H109.123V22.5H106.463ZM107.793 14.072C107.308 14.072 106.916 13.9367 106.617 13.666C106.319 13.3953 106.169 13.0593 106.169 12.658C106.169 12.2567 106.319 11.9207 106.617 11.65C106.916 11.3793 107.308 11.244 107.793 11.244C108.279 11.244 108.671 11.3747 108.969 11.636C109.268 11.888 109.417 12.2147 109.417 12.616C109.417 13.036 109.268 13.386 108.969 13.666C108.68 13.9367 108.288 14.072 107.793 14.072ZM114.156 22.626C113.465 22.626 112.835 22.4673 112.266 22.15C111.706 21.8233 111.258 21.3707 110.922 20.792C110.586 20.204 110.418 19.504 110.418 18.692C110.418 17.8893 110.586 17.1987 110.922 16.62C111.258 16.032 111.706 15.5793 112.266 15.262C112.835 14.9447 113.465 14.786 114.156 14.786C114.809 14.786 115.36 14.926 115.808 15.206C116.265 15.486 116.611 15.9153 116.844 16.494C117.077 17.0727 117.194 17.8053 117.194 18.692C117.194 19.5973 117.082 20.3393 116.858 20.918C116.634 21.4967 116.298 21.926 115.85 22.206C115.402 22.486 114.837 22.626 114.156 22.626ZM114.716 20.512C115.015 20.512 115.281 20.442 115.514 20.302C115.757 20.162 115.948 19.9567 116.088 19.686C116.228 19.406 116.298 19.0747 116.298 18.692C116.298 18.3093 116.228 17.9873 116.088 17.726C115.948 17.4553 115.757 17.25 115.514 17.11C115.281 16.97 115.015 16.9 114.716 16.9C114.408 16.9 114.133 16.97 113.89 17.11C113.657 17.25 113.47 17.4553 113.33 17.726C113.19 17.9873 113.12 18.3093 113.12 18.692C113.12 19.0747 113.19 19.406 113.33 19.686C113.47 19.9567 113.657 20.162 113.89 20.302C114.133 20.442 114.408 20.512 114.716 20.512ZM116.382 22.5V21.198L116.396 18.692L116.256 16.186V12.112H118.916V22.5H116.382ZM124.603 22.626C123.707 22.626 122.923 22.458 122.251 22.122C121.589 21.7767 121.071 21.31 120.697 20.722C120.333 20.1247 120.151 19.448 120.151 18.692C120.151 17.936 120.329 17.264 120.683 16.676C121.047 16.0787 121.547 15.6167 122.181 15.29C122.816 14.954 123.53 14.786 124.323 14.786C125.07 14.786 125.751 14.94 126.367 15.248C126.983 15.5467 127.473 15.99 127.837 16.578C128.201 17.166 128.383 17.88 128.383 18.72C128.383 18.8133 128.379 18.9207 128.369 19.042C128.36 19.1633 128.351 19.2753 128.341 19.378H122.335V17.978H126.927L125.919 18.37C125.929 18.0247 125.863 17.726 125.723 17.474C125.593 17.222 125.406 17.026 125.163 16.886C124.93 16.746 124.655 16.676 124.337 16.676C124.02 16.676 123.74 16.746 123.497 16.886C123.264 17.026 123.082 17.2267 122.951 17.488C122.821 17.74 122.755 18.0387 122.755 18.384V18.79C122.755 19.1633 122.83 19.4853 122.979 19.756C123.138 20.0267 123.362 20.2367 123.651 20.386C123.941 20.526 124.286 20.596 124.687 20.596C125.061 20.596 125.378 20.5447 125.639 20.442C125.91 20.33 126.176 20.162 126.437 19.938L127.837 21.394C127.473 21.7953 127.025 22.1033 126.493 22.318C125.961 22.5233 125.331 22.626 124.603 22.626Z" fill="#292D32"/>
</svg>
